<svg xmlns="http://www.w3.org/2000/svg" version="1.1" xmlns:xlink="http://www.w3.org/1999/xlink" xmlns:svgjs="http://svgjs.dev/svgjs" width="1500" height="1500" viewBox="0 0 1500 1500"><rect width="1500" height="1500" fill="#ffffff"></rect><g transform="matrix(0.6666666666666666,0,0,0.6666666666666666,249.39393939393938,563.76584611812)"><svg viewBox="0 0 396 147" data-background-color="#ffffff" preserveAspectRatio="xMidYMid meet" height="556" width="1500" xmlns="http://www.w3.org/2000/svg" xmlns:xlink="http://www.w3.org/1999/xlink"><g id="tight-bounds" transform="matrix(1,0,0,1,0.2400000000000091,0.3572498758175584)"><svg viewBox="0 0 395.52 146.28550024836488" height="146.28550024836488" width="395.52"><g><svg viewBox="0 0 681.6034869416155 252.0952342695289" height="146.28550024836488" width="395.52"><g transform="matrix(1,0,0,1,286.08348694161543,45.33375039375524)"><svg viewBox="0 0 395.52000000000004 161.42773348201843" height="161.42773348201843" width="395.52000000000004"><g id="textblocktransform"><svg viewBox="0 0 395.52000000000004 161.42773348201843" height="161.42773348201843" width="395.52000000000004" id="textblock"><g><svg viewBox="0 0 395.52000000000004 161.42773348201843" height="161.42773348201843" width="395.52000000000004"><g transform="matrix(1,0,0,1,0,0)"><svg width="395.52000000000004" viewBox="1.949999999999993 -32.74999999999999 179.35000000000002 70.05" height="161.42773348201843" data-palette-color="#106a46"><svg></svg><svg></svg><g class="wordmark-text-0" data-fill-palette-color="primary" id="text-0"><path d="M17.95-22.85v0c0.267-0.133 0.6-0.25 1-0.35 0.4-0.1 0.817-0.15 1.25-0.15v0c0.667 0 1.227 0.107 1.68 0.32 0.447 0.22 0.737 0.547 0.87 0.98v0c0.833 2.4 1.593 4.623 2.28 6.67 0.68 2.053 1.33 4.037 1.95 5.95 0.613 1.92 1.237 3.897 1.87 5.93v0h0.2c0.633-3 1.25-5.927 1.85-8.78 0.6-2.847 1.183-5.737 1.75-8.67 0.567-2.933 1.083-6.067 1.55-9.4v0c0.467-0.233 1.033-0.35 1.7-0.35v0c0.633 0 1.133 0.14 1.5 0.42 0.367 0.287 0.55 0.713 0.55 1.28v0c0 0.633-0.09 1.59-0.27 2.87-0.187 1.287-0.437 2.787-0.75 4.5-0.32 1.72-0.687 3.537-1.1 5.45-0.42 1.92-0.863 3.837-1.33 5.75-0.467 1.92-0.933 3.73-1.4 5.43-0.467 1.7-0.917 3.183-1.35 4.45v0c-0.3 0.167-0.683 0.323-1.15 0.47-0.467 0.153-1 0.23-1.6 0.23v0c-0.733 0-1.35-0.117-1.85-0.35-0.5-0.233-0.833-0.55-1-0.95v0c-0.467-1.167-1.033-2.71-1.7-4.63-0.667-1.913-1.357-4.013-2.07-6.3-0.72-2.28-1.413-4.537-2.08-6.77v0c-0.633 2.2-1.317 4.483-2.05 6.85-0.733 2.367-1.44 4.567-2.12 6.6-0.687 2.033-1.297 3.667-1.83 4.9v0c-0.233 0.133-0.59 0.273-1.07 0.42-0.487 0.153-1.03 0.23-1.63 0.23v0c-0.733 0-1.34-0.127-1.82-0.38-0.487-0.247-0.813-0.553-0.98-0.92v0c-0.333-0.833-0.74-2.083-1.22-3.75-0.487-1.667-0.997-3.577-1.53-5.73-0.533-2.147-1.057-4.377-1.57-6.69-0.52-2.32-1.003-4.557-1.45-6.71-0.453-2.147-0.813-4.053-1.08-5.72v0c0.233-0.233 0.55-0.45 0.95-0.65 0.4-0.2 0.833-0.3 1.3-0.3v0c0.6 0 1.067 0.14 1.4 0.42 0.333 0.287 0.567 0.763 0.7 1.43v0c0.433 2.1 0.85 4.133 1.25 6.1 0.4 1.967 0.81 3.95 1.23 5.95 0.413 2 0.853 4.09 1.32 6.27 0.467 2.187 0.983 4.53 1.55 7.03v0h0.2c0.467-1.5 0.917-2.933 1.35-4.3 0.433-1.367 0.883-2.777 1.35-4.23 0.467-1.447 0.973-3.037 1.52-4.77 0.553-1.733 1.18-3.75 1.88-6.05zM62.15-11.35l-16.8 2.35-0.2-3.15 15.1-2.05c-0.133-1.833-0.767-3.343-1.9-4.53-1.133-1.18-2.7-1.77-4.7-1.77v0c-2.067 0-3.773 0.74-5.12 2.22-1.353 1.487-2.03 3.613-2.03 6.38v0 1.1c0.233 2.667 1.11 4.69 2.63 6.07 1.513 1.387 3.587 2.08 6.22 2.08v0c1.4 0 2.667-0.233 3.8-0.7 1.133-0.467 2.033-0.967 2.7-1.5v0c0.367 0.233 0.66 0.507 0.88 0.82 0.213 0.32 0.32 0.68 0.32 1.08v0c0 0.633-0.357 1.223-1.07 1.77-0.72 0.553-1.67 0.997-2.85 1.33-1.187 0.333-2.513 0.5-3.98 0.5v0c-2.567 0-4.79-0.467-6.67-1.4-1.887-0.933-3.337-2.327-4.35-4.18-1.02-1.847-1.53-4.103-1.53-6.77v0c0-1.9 0.277-3.593 0.83-5.08 0.547-1.48 1.313-2.737 2.3-3.77 0.98-1.033 2.153-1.827 3.52-2.38 1.367-0.547 2.85-0.82 4.45-0.82v0c2.033 0 3.827 0.433 5.38 1.3 1.547 0.867 2.763 2.077 3.65 3.63 0.88 1.547 1.32 3.32 1.32 5.32v0c0 0.733-0.167 1.257-0.5 1.57-0.333 0.32-0.8 0.513-1.4 0.58zM78.1 0.7v0c-3.133 0-5.557-0.617-7.27-1.85-1.72-1.233-2.58-3.017-2.58-5.35v0c0-2.167 0.727-3.827 2.18-4.98 1.447-1.147 3.453-1.837 6.02-2.07v0l7.1-0.7v-1.4c0-1.667-0.5-2.883-1.5-3.65-1-0.767-2.35-1.15-4.05-1.15v0c-1.367 0-2.673 0.2-3.92 0.6-1.253 0.4-2.363 0.85-3.33 1.35v0c-0.267-0.233-0.507-0.51-0.72-0.83-0.22-0.313-0.33-0.637-0.33-0.97v0c0-0.867 0.483-1.533 1.45-2v0c0.9-0.467 1.943-0.827 3.13-1.08 1.18-0.247 2.437-0.37 3.77-0.37v0c2.9 0 5.2 0.65 6.9 1.95 1.7 1.3 2.55 3.35 2.55 6.15v0 11.85c0 0.733-0.14 1.29-0.42 1.67-0.287 0.387-0.713 0.747-1.28 1.08v0c-0.8 0.433-1.867 0.833-3.2 1.2-1.333 0.367-2.833 0.55-4.5 0.55zM78.1-2.6v0c1.4 0 2.56-0.143 3.48-0.43 0.913-0.28 1.57-0.553 1.97-0.82v0-7.25l-6.2 0.65c-1.733 0.133-3.017 0.517-3.85 1.15-0.833 0.633-1.25 1.55-1.25 2.75v0c0 1.233 0.493 2.2 1.48 2.9 0.98 0.7 2.437 1.05 4.37 1.05zM94.85-6.05v-7.15h4v6.9c0 1.333 0.383 2.273 1.15 2.82 0.767 0.553 1.817 0.83 3.15 0.83v0c0.567 0 1.2-0.1 1.9-0.3 0.7-0.2 1.283-0.433 1.75-0.7v0c0.2 0.2 0.383 0.45 0.55 0.75 0.167 0.3 0.25 0.65 0.25 1.05v0c0 0.733-0.433 1.333-1.3 1.8-0.867 0.467-2.067 0.7-3.6 0.7v0c-2.333 0-4.223-0.517-5.67-1.55-1.453-1.033-2.18-2.75-2.18-5.15zM106-19.3h-9.1v-3.3h10.15c0.1 0.133 0.2 0.35 0.3 0.65 0.1 0.3 0.15 0.617 0.15 0.95v0c0 0.533-0.133 0.95-0.4 1.25-0.267 0.3-0.633 0.45-1.1 0.45zM98.85-28.35v16.65h-4v-18.1c0.167-0.067 0.427-0.143 0.78-0.23 0.347-0.08 0.72-0.12 1.12-0.12v0c0.7 0 1.227 0.14 1.58 0.42 0.347 0.287 0.52 0.747 0.52 1.38zM133.45-14.65v4.7h-4v-4.6c0-2-0.557-3.483-1.67-4.45-1.12-0.967-2.563-1.45-4.33-1.45v0c-1.3 0-2.507 0.25-3.62 0.75-1.12 0.5-2.063 1.1-2.83 1.8v0l-0.75-3.25c0.8-0.567 1.86-1.143 3.18-1.73 1.313-0.58 2.837-0.87 4.57-0.87v0c2.767 0 5.033 0.75 6.8 2.25 1.767 1.5 2.65 3.783 2.65 6.85zM113.5-1.55v-11.65h4v13.1c-0.167 0.067-0.417 0.143-0.75 0.23-0.333 0.08-0.7 0.12-1.1 0.12v0c-0.7 0-1.233-0.143-1.6-0.43-0.367-0.28-0.55-0.737-0.55-1.37zM129.45-1.55v-11.6l4 0.05v13c-0.167 0.067-0.423 0.143-0.77 0.23-0.353 0.08-0.713 0.12-1.08 0.12v0c-0.733 0-1.273-0.143-1.62-0.43-0.353-0.28-0.53-0.737-0.53-1.37zM117.5-30.95v19.7h-4v-21.15c0.167-0.067 0.427-0.143 0.78-0.23 0.347-0.08 0.72-0.12 1.12-0.12v0c0.7 0 1.227 0.14 1.58 0.42 0.347 0.287 0.52 0.747 0.52 1.38zM159.2-11.35l-16.8 2.35-0.2-3.15 15.1-2.05c-0.133-1.833-0.767-3.343-1.9-4.53-1.133-1.18-2.7-1.77-4.7-1.77v0c-2.067 0-3.773 0.74-5.12 2.22-1.353 1.487-2.03 3.613-2.03 6.38v0 1.1c0.233 2.667 1.11 4.69 2.63 6.07 1.513 1.387 3.587 2.08 6.22 2.08v0c1.4 0 2.667-0.233 3.8-0.7 1.133-0.467 2.033-0.967 2.7-1.5v0c0.367 0.233 0.66 0.507 0.88 0.82 0.213 0.32 0.32 0.68 0.32 1.08v0c0 0.633-0.357 1.223-1.07 1.77-0.72 0.553-1.67 0.997-2.85 1.33-1.187 0.333-2.513 0.5-3.98 0.5v0c-2.567 0-4.79-0.467-6.67-1.4-1.887-0.933-3.337-2.327-4.35-4.18-1.02-1.847-1.53-4.103-1.53-6.77v0c0-1.9 0.277-3.593 0.83-5.08 0.547-1.48 1.313-2.737 2.3-3.77 0.98-1.033 2.153-1.827 3.52-2.38 1.367-0.547 2.85-0.82 4.45-0.82v0c2.033 0 3.827 0.433 5.38 1.3 1.547 0.867 2.763 2.077 3.65 3.63 0.88 1.547 1.32 3.32 1.32 5.32v0c0 0.733-0.167 1.257-0.5 1.57-0.333 0.32-0.8 0.513-1.4 0.58zM170.9-18.8v0 7.9h-4v-7.6c0-0.767 0.143-1.377 0.43-1.83 0.28-0.447 0.753-0.887 1.42-1.32v0c0.867-0.567 2.05-1.06 3.55-1.48 1.5-0.413 3.167-0.62 5-0.62v0c2.667 0 4 0.667 4 2v0c0 0.333-0.05 0.64-0.15 0.92-0.1 0.287-0.233 0.53-0.4 0.73v0c-0.333-0.067-0.767-0.133-1.3-0.2-0.533-0.067-1.067-0.1-1.6-0.1v0c-1.533 0-2.883 0.157-4.05 0.47-1.167 0.32-2.133 0.697-2.9 1.13zM166.9-1.55v-11.65l4 0.6v12.5c-0.167 0.067-0.417 0.143-0.75 0.23-0.333 0.08-0.7 0.12-1.1 0.12v0c-0.7 0-1.233-0.143-1.6-0.43-0.367-0.28-0.55-0.737-0.55-1.37z" fill="#000000" fill-rule="nonzero" stroke="none" stroke-width="1" stroke-linecap="butt" stroke-linejoin="miter" stroke-miterlimit="10" stroke-dasharray="" stroke-dashoffset="0" font-family="none" font-weight="none" font-size="none" text-anchor="none" style="mix-blend-mode: normal" data-fill-palette-color="primary" opacity="1"></path><path transform="translate(0,36.6)" d="M12.85-2.75v0c2.233 0 3.927-0.51 5.08-1.53 1.147-1.013 1.72-2.32 1.72-3.92v0c0-1.367-0.443-2.5-1.33-3.4-0.88-0.9-2.27-1.617-4.17-2.15v0l-4.35-1.3c-1.4-0.433-2.617-0.993-3.65-1.68-1.033-0.68-1.823-1.53-2.37-2.55-0.553-1.013-0.83-2.203-0.83-3.57v0c0-2.567 0.933-4.577 2.8-6.03 1.867-1.447 4.35-2.17 7.45-2.17v0c1.8 0 3.41 0.19 4.83 0.57 1.413 0.387 2.53 0.88 3.35 1.48 0.813 0.6 1.22 1.233 1.22 1.9v0c0 0.433-0.117 0.823-0.35 1.17-0.233 0.353-0.533 0.63-0.9 0.83v0c-0.833-0.667-1.957-1.25-3.37-1.75-1.42-0.5-2.963-0.75-4.63-0.75v0c-1.933 0-3.467 0.423-4.6 1.27-1.133 0.853-1.7 2.013-1.7 3.48v0c0 1.167 0.41 2.117 1.23 2.85 0.813 0.733 2.137 1.367 3.97 1.9v0l3.05 0.9c2.633 0.733 4.71 1.8 6.23 3.2 1.513 1.4 2.27 3.333 2.27 5.8v0c0 2.633-0.957 4.767-2.87 6.4-1.92 1.633-4.613 2.45-8.08 2.45v0c-2.033 0-3.807-0.227-5.32-0.68-1.52-0.447-2.703-1.013-3.55-1.7-0.853-0.68-1.28-1.353-1.28-2.02v0c0-0.567 0.177-1.043 0.53-1.43 0.347-0.38 0.753-0.653 1.22-0.82v0c0.767 0.733 1.85 1.457 3.25 2.17 1.4 0.72 3.117 1.08 5.15 1.08zM29.95-6.05v-7.15h4v6.9c0 1.333 0.383 2.273 1.15 2.82 0.767 0.553 1.817 0.83 3.15 0.83v0c0.567 0 1.2-0.1 1.9-0.3 0.7-0.2 1.283-0.433 1.75-0.7v0c0.2 0.2 0.383 0.45 0.55 0.75 0.167 0.3 0.25 0.65 0.25 1.05v0c0 0.733-0.433 1.333-1.3 1.8-0.867 0.467-2.067 0.7-3.6 0.7v0c-2.333 0-4.223-0.517-5.67-1.55-1.453-1.033-2.18-2.75-2.18-5.15zM41.1-19.3h-9.1v-3.3h10.15c0.1 0.133 0.2 0.35 0.3 0.65 0.1 0.3 0.15 0.617 0.15 0.95v0c0 0.533-0.133 0.95-0.4 1.25-0.267 0.3-0.633 0.45-1.1 0.45zM33.95-28.35v16.65h-4v-18.1c0.167-0.067 0.427-0.143 0.78-0.23 0.347-0.08 0.72-0.12 1.12-0.12v0c0.7 0 1.227 0.14 1.58 0.42 0.347 0.287 0.52 0.747 0.52 1.38zM56.75 0.7v0c-3.133 0-5.557-0.617-7.27-1.85-1.72-1.233-2.58-3.017-2.58-5.35v0c0-2.167 0.727-3.827 2.18-4.98 1.447-1.147 3.453-1.837 6.02-2.07v0l7.1-0.7v-1.4c0-1.667-0.5-2.883-1.5-3.65-1-0.767-2.35-1.15-4.05-1.15v0c-1.367 0-2.673 0.2-3.92 0.6-1.253 0.4-2.363 0.85-3.33 1.35v0c-0.267-0.233-0.51-0.51-0.73-0.83-0.213-0.313-0.32-0.637-0.32-0.97v0c0-0.867 0.483-1.533 1.45-2v0c0.9-0.467 1.94-0.827 3.12-1.08 1.187-0.247 2.447-0.37 3.78-0.37v0c2.9 0 5.2 0.65 6.9 1.95 1.7 1.3 2.55 3.35 2.55 6.15v0 11.85c0 0.733-0.143 1.29-0.43 1.67-0.28 0.387-0.703 0.747-1.27 1.08v0c-0.8 0.433-1.867 0.833-3.2 1.2-1.333 0.367-2.833 0.55-4.5 0.55zM56.75-2.6v0c1.4 0 2.56-0.143 3.48-0.43 0.913-0.28 1.57-0.553 1.97-0.82v0-7.25l-6.2 0.65c-1.733 0.133-3.017 0.517-3.85 1.15-0.833 0.633-1.25 1.55-1.25 2.75v0c0 1.233 0.493 2.2 1.48 2.9 0.98 0.7 2.437 1.05 4.37 1.05zM73.5-6.05v-7.15h4v6.9c0 1.333 0.383 2.273 1.15 2.82 0.767 0.553 1.817 0.83 3.15 0.83v0c0.567 0 1.2-0.1 1.9-0.3 0.7-0.2 1.283-0.433 1.75-0.7v0c0.2 0.2 0.383 0.45 0.55 0.75 0.167 0.3 0.25 0.65 0.25 1.05v0c0 0.733-0.433 1.333-1.3 1.8-0.867 0.467-2.067 0.7-3.6 0.7v0c-2.333 0-4.227-0.517-5.68-1.55-1.447-1.033-2.17-2.75-2.17-5.15zM84.65-19.3h-9.1v-3.3h10.15c0.1 0.133 0.2 0.35 0.3 0.65 0.1 0.3 0.15 0.617 0.15 0.95v0c0 0.533-0.133 0.95-0.4 1.25-0.267 0.3-0.633 0.45-1.1 0.45zM77.5-28.35v16.65h-4v-18.1c0.167-0.067 0.427-0.143 0.78-0.23 0.347-0.08 0.72-0.12 1.12-0.12v0c0.7 0 1.227 0.14 1.58 0.42 0.347 0.287 0.52 0.747 0.52 1.38zM91.7-30.4v0c0-0.7 0.25-1.293 0.75-1.78 0.5-0.48 1.117-0.72 1.85-0.72v0c0.767 0 1.383 0.24 1.85 0.72 0.467 0.487 0.7 1.08 0.7 1.78v0c0 0.7-0.233 1.29-0.7 1.77-0.467 0.487-1.083 0.73-1.85 0.73v0c-0.733 0-1.35-0.243-1.85-0.73-0.5-0.48-0.75-1.07-0.75-1.77zM92.3-1.55v-11.65h4v13.1c-0.167 0.067-0.417 0.143-0.75 0.23-0.333 0.08-0.7 0.12-1.1 0.12v0c-0.7 0-1.233-0.143-1.6-0.43-0.367-0.28-0.55-0.737-0.55-1.37zM96.3-21.5v10.25h-4v-11.75c0.167-0.067 0.427-0.143 0.78-0.23 0.347-0.08 0.72-0.12 1.12-0.12v0c0.7 0 1.227 0.14 1.58 0.42 0.347 0.287 0.52 0.763 0.52 1.43zM125.55-11.55v0c0 2.467-0.467 4.617-1.4 6.45-0.933 1.833-2.25 3.25-3.95 4.25-1.7 1-3.7 1.5-6 1.5v0c-2.3 0-4.307-0.5-6.02-1.5-1.72-1-3.047-2.417-3.98-4.25-0.933-1.833-1.4-3.983-1.4-6.45v0c0-2.5 0.477-4.66 1.43-6.48 0.947-1.813 2.28-3.22 4-4.22 1.713-1 3.703-1.5 5.97-1.5v0c2.267 0 4.25 0.5 5.95 1.5 1.7 1 3.027 2.407 3.98 4.22 0.947 1.82 1.42 3.98 1.42 6.48zM114.2-20.45v0c-2.233 0-4.007 0.793-5.32 2.38-1.32 1.58-1.98 3.753-1.98 6.52v0c0 2.8 0.643 4.983 1.93 6.55 1.28 1.567 3.07 2.35 5.37 2.35v0c2.267 0 4.043-0.793 5.33-2.38 1.28-1.58 1.92-3.753 1.92-6.52v0c0-2.767-0.64-4.94-1.92-6.52-1.287-1.587-3.063-2.38-5.33-2.38zM151.75-15.25v0 5.1h-4v-4.9c0-1.867-0.523-3.233-1.57-4.1-1.053-0.867-2.463-1.3-4.23-1.3v0c-1.333 0-2.517 0.167-3.55 0.5-1.033 0.333-1.917 0.717-2.65 1.15v0 8.65h-4v-8.45c0-0.7 0.143-1.277 0.43-1.73 0.28-0.447 0.77-0.887 1.47-1.32v0c0.867-0.5 2.017-0.977 3.45-1.43 1.433-0.447 3.05-0.67 4.85-0.67v0c3.033 0 5.427 0.69 7.18 2.07 1.747 1.387 2.62 3.53 2.62 6.43zM131.75-1.55v-11.35h4v12.8c-0.167 0.067-0.417 0.143-0.75 0.23-0.333 0.08-0.7 0.12-1.1 0.12v0c-0.7 0-1.233-0.143-1.6-0.43-0.367-0.28-0.55-0.737-0.55-1.37zM147.75-1.55v-11.35h4v12.8c-0.167 0.067-0.427 0.143-0.78 0.23-0.347 0.08-0.703 0.12-1.07 0.12v0c-0.733 0-1.273-0.143-1.62-0.43-0.353-0.28-0.53-0.737-0.53-1.37z" fill="#000000" fill-rule="nonzero" stroke="none" stroke-width="1" stroke-linecap="butt" stroke-linejoin="miter" stroke-miterlimit="10" stroke-dasharray="" stroke-dashoffset="0" font-family="none" font-weight="none" font-size="none" text-anchor="none" style="mix-blend-mode: normal" data-fill-palette-color="primary" opacity="1"></path></g></svg></g></svg></g></svg></g></svg></g><g><svg viewBox="0 0 268.59073315364776 252.0952342695289" height="252.0952342695289" width="268.59073315364776"><g><svg xmlns="http://www.w3.org/2000/svg" xmlns:xlink="http://www.w3.org/1999/xlink" version="1.1" x="0" y="0" viewBox="10.092545443502464 12.501 79.90645461489893 74.999" enable-background="new 0 0 100 100" xml:space="preserve" height="252.0952342695289" width="268.59073315364776" class="icon-icon-0" data-fill-palette-color="accent" id="icon-0"><path fill="none" stroke="#A6BB05" stroke-linecap="round" stroke-linejoin="round" stroke-miterlimit="10" d="M32.498 61.25A8.75 8.75 0 1 0 32.498 61.25"></path><path fill="none" stroke="#A6BB05" stroke-linecap="round" stroke-linejoin="round" stroke-miterlimit="10" d="M76.871 56.876"></path><path fill="none" stroke="#A6BB05" stroke-linecap="round" stroke-linejoin="round" stroke-miterlimit="10" d="M56.387 43.752C49.139 43.752 43.263 49.627 43.263 56.873 43.263 49.628 49.139 43.752 56.387 43.752"></path><path fill="none" stroke="#A6BB05" stroke-linecap="round" stroke-linejoin="round" stroke-miterlimit="10" d="M81.25 70A8.75 8.75 0 0 0 89.999 61.25 8.75 8.75 0 0 0 81.25 52.499H76.108C74.303 47.406 69.459 43.75 63.751 43.75H56.389C53.36 38.524 47.725 35 41.251 35 31.584 35 23.75 42.836 23.748 52.499H18.75A8.751 8.751 0 0 0 18.75 70z"></path><path fill="none" stroke="#A6BB05" stroke-linecap="round" stroke-linejoin="round" stroke-miterlimit="10" d="M59.999 65A5 5 0 1 1 64.998 70H18.75 64.998A5 5 0 1 0 59.999 65"></path><path fill="none" stroke="#A6BB05" stroke-linecap="round" stroke-linejoin="round" stroke-miterlimit="10" d="M54.999 83.748A3.75 3.75 0 0 0 58.747 87.5 3.753 3.753 0 0 0 62.499 83.75C62.499 81.681 60.819 80 58.747 80L28.744 80.001H28.744L58.747 80A3.75 3.75 0 0 1 62.499 83.75C62.499 85.818 60.819 87.5 58.747 87.5A3.75 3.75 0 0 1 54.999 83.748"></path><path fill="none" stroke="#A6BB05" stroke-linecap="round" stroke-linejoin="round" stroke-miterlimit="10" d="M69.999 82.501H76.248A3.753 3.753 0 0 0 80 78.751C80 76.682 78.32 75.001 76.248 75.001H23.745 76.248A3.75 3.75 0 0 1 80 78.751C80 80.819 78.32 82.501 76.248 82.501z"></path><path fill="none" stroke="#A6BB05" stroke-linecap="round" stroke-linejoin="round" stroke-miterlimit="10" d="M84.998 37.501H89.999z"></path><path fill="none" stroke="#A6BB05" stroke-linecap="round" stroke-linejoin="round" stroke-miterlimit="10" d="M65 17.501V12.501z"></path><path fill="none" stroke="#A6BB05" stroke-linecap="round" stroke-linejoin="round" stroke-miterlimit="10" d="M79.142 23.359L82.677 19.822z"></path><path fill="none" stroke="#A6BB05" stroke-linecap="round" stroke-linejoin="round" stroke-miterlimit="10" d="M50.856 23.359L47.321 19.822z"></path><path fill="none" stroke="#A6BB05" stroke-linecap="round" stroke-linejoin="round" stroke-miterlimit="10" d="M83.476 29.848L88.096 27.934z"></path><path fill="none" stroke="#A6BB05" stroke-linecap="round" stroke-linejoin="round" stroke-miterlimit="10" d="M57.347 19.023L55.433 14.403z"></path><path fill="none" stroke="#A6BB05" stroke-linecap="round" stroke-linejoin="round" stroke-miterlimit="10" d="M72.653 19.023L74.566 14.403z"></path><path fill="none" stroke="#A6BB05" stroke-linecap="round" stroke-linejoin="round" stroke-miterlimit="10" d="M88.096 47.066L83.478 45.152z"></path><path fill="none" stroke="#A6BB05" stroke-linecap="round" stroke-linejoin="round" stroke-miterlimit="10" d="M46.522 29.846L41.902 27.932z"></path><path fill="none" stroke="#A6BB05" stroke-linecap="round" stroke-linejoin="round" stroke-miterlimit="10" d="M56.389 43.75H63.751C68.128 43.75 71.983 45.909 74.363 49.207 77.797 46.458 80 42.24 80 37.5 80 29.216 73.283 22.5 65 22.5 56.765 22.5 50.081 29.142 50.005 37.362A17.6 17.6 0 0 1 56.389 43.75"></path></svg></g></svg></g></svg></g><defs></defs></svg><rect width="395.52" height="146.28550024836488" fill="none" stroke="none" visibility="hidden"></rect></g></svg></g></svg>